<?xml version="1.0" encoding="UTF-8"?>
<svg width="375px" height="100px" viewBox="0 0 375 100" version="1.1" xmlns="http://www.w3.org/2000/svg" xmlns:xlink="http://www.w3.org/1999/xlink">
    <title>tabs_wave</title>
    <defs>
        <linearGradient x1="15.7998924%" y1="45.6166177%" x2="113.327863%" y2="46.9048964%" id="linearGradient-1">
            <stop stop-color="#F9B500" offset="0%"></stop>
            <stop stop-color="#FFFFFF" offset="100%"></stop>
        </linearGradient>
    </defs>
    <g id="Page-1" stroke="none" stroke-width="1" fill="none" fill-rule="evenodd">
        <g id="Main" transform="translate(0.000000, -647.000000)" fill="url(#linearGradient-1)" fill-rule="nonzero">
            <g id="tabs_wave" transform="translate(-38.000000, 647.000000)">
                <path d="M3,19.8643434 L6.56070003,100.88495 L452.860869,110.926864 L446.317348,19.8643434 C417.768096,0.424961199 379.72513,-0.488724921 332.188451,17.1232851 C260.883432,43.5413 267.814812,2 227.930434,2 C188.046057,2 198.192859,38.0078591 132.076184,19.8643434 C87.9984004,7.76866628 44.9730058,7.76866628 3,19.8643434 Z M2.44618259,17.942551 C44.7770434,5.74374805 88.1770323,5.74374805 132.605451,17.9356453 C150.766483,22.9193349 163.911013,24.0363 174.042624,22.0389065 C181.633518,20.542402 186.104292,18.1459362 194.873522,11.861237 C201.076018,7.41605062 204.037362,5.54808583 208.34942,3.69929008 C214.047913,1.25605998 220.322952,0 227.930434,0 C235.147076,0 241.280355,1.29774533 247.029437,3.81652531 C251.377655,5.72156121 254.493665,7.67395353 260.754374,12.0861949 C271.181414,19.4349213 276.346416,22.0862392 284.968529,23.3786847 C296.469731,25.1027028 311.241041,22.7513025 331.493619,15.2478625 C379.585113,-2.56970253 418.288731,-1.64014939 447.442993,18.2111878 L448.242849,18.7558152 L455.013257,112.9758 L4.6447934,102.842348 L0.932777458,18.3786803 L2.44618259,17.942551 Z" id="Path-2-Copy"></path>
            </g>
        </g>
    </g>
</svg>